HIERARCHY
ROOT Hips
{
  OFFSET 41.6421 100.774 -260.36
  CHANNELS 6 Xposition Yposition Zposition Zrotation Xrotation Yrotation
  JOINT ToSpine
  {
    OFFSET -0.0105055 1.38907 -7.13956
    CHANNELS 3 Zrotation Xrotation Yrotation
    JOINT Spine
    {
      OFFSET 0.0105055 10 1
      CHANNELS 3 Zrotation Xrotation Yrotation
      JOINT Spine1
      {
        OFFSET 0 12 1.60637
        CHANNELS 3 Zrotation Xrotation Yrotation
        JOINT Neck
        {
          OFFSET 0 27 2.26658
          CHANNELS 3 Zrotation Xrotation Yrotation
          JOINT Head
          {
            OFFSET 0 9 2.12705
            CHANNELS 3 Zrotation Xrotation Yrotation
            End Site
            {
              OFFSET 0 11 2
            }
          }
        }
        JOINT LeftShoulder
        {
          OFFSET 8 19.6109 2.86452
          CHANNELS 3 Zrotation Xrotation Yrotation
          JOINT LeftArm
          {
            OFFSET 12 1 0.681055
            CHANNELS 3 Zrotation Xrotation Yrotation
            JOINT LeftForeArm
            {
              OFFSET 19 0 -1.52608
              CHANNELS 3 Zrotation Xrotation Yrotation
              JOINT LeftHand
              {
                OFFSET 23 0 0
                CHANNELS 3 Zrotation Xrotation Yrotation
                End Site
                {
                  OFFSET 10 0 0
                }
              }
            }
          }
        }
        JOINT RightShoulder
        {
          OFFSET -8 19.6109 2.86452
          CHANNELS 3 Zrotation Xrotation Yrotation
          JOINT RightArm
          {
            OFFSET -12 1 0.681055
            CHANNELS 3 Zrotation Xrotation Yrotation
            JOINT RightForeArm
            {
              OFFSET -19 0 -1.52608
              CHANNELS 3 Zrotation Xrotation Yrotation
              JOINT RightHand
              {
                OFFSET -23 0 0
                CHANNELS 3 Zrotation Xrotation Yrotation
                End Site
                {
                  OFFSET -10 0 0
                }
              }
            }
          }
        }
      }
    }
  }
  JOINT LeftUpLeg
  {
    OFFSET 9 -7.17245 0
    CHANNELS 3 Zrotation Xrotation Yrotation
    JOINT LeftLeg
    {
      OFFSET 0 -44.1113 0
      CHANNELS 3 Zrotation Xrotation Yrotation
      JOINT LeftFoot
      {
        OFFSET 0 -36.1829 0
        CHANNELS 3 Zrotation Xrotation Yrotation
        JOINT LeftToeBase
        {
          OFFSET 0 -4.84184 13
          CHANNELS 3 Zrotation Xrotation Yrotation
          End Site
          {
            OFFSET 0 1 6
          }
        }
      }
    }
  }
  JOINT RightUpLeg
  {
    OFFSET -9 -7.17245 0
    CHANNELS 3 Zrotation Xrotation Yrotation
    JOINT RightLeg
    {
      OFFSET 0 -44.0551 0
      CHANNELS 3 Zrotation Xrotation Yrotation
      JOINT RightFoot
      {
        OFFSET 0 -36.1469 0
        CHANNELS 3 Zrotation Xrotation Yrotation
        JOINT RightToeBase
        {
          OFFSET 0 -4.92256 13
          CHANNELS 3 Zrotation Xrotation Yrotation
          End Site
          {
            OFFSET 0 1 6
          }
        }
      }
    }
  }
}
MOTION
Frames:	17
Frame Time:	0.0333333
18.9272 97.8892 -62.1142 4.61185 -5.90946 -9.39337 0 0 0 2.96686 5.07131 1.49688 -11.4452 3.24591 3.4375 6.71271 5.42717 1.80345 -0.586778 0.109085 4.22523 -31.0227 3.30563 -5.39775 -35.8293 11.3448 -17.418 -3.53586 -25.1222 0.678923 -7.77694 0.179494 -2.63087 23.4186 5.45796 14.736 52.7808 14.1811 4.24603 3.02604 -4.88427 13.767 2.53224 0.102593 4.63356 -8.20187 -4.99404 4.97523 -4.19338 22.1893 3.90027 3.52637 -14.2784 0.442317 0.22386 6.78227 -2.27653 -7.49646 -11.9151 -0.383312 0.0351239 59.5773 -0.0070214 -23.155 -6.97234 -1.42977 4.63254 -18.2371 -7.57538 
18.5612 97.982 -58.8146 4.17761 -5.193 -7.80218 0 0 0 1.58689 5.15571 0.208368 -9.39254 2.34149 1.67439 7.77323 6.05165 2.11786 -1.79597 0.202088 5.21403 -29.7788 3.30984 -5.7146 -34.5748 11.4046 -21.7675 -4.13146 -24.2259 -2.10276 -8.8663 0.240386 -3.1047 23.8673 5.44311 14.4299 53.1968 13.638 1.47913 3.21805 -5.51624 13.8062 2.9537 0.126754 4.91738 -7.87292 -2.75762 5.12599 -3.59487 21.3399 0.782564 5.39827 -14.6404 0.696928 -0.287886 3.97914 0.144165 -5.99603 -15.7854 -1.66788 0.00381397 53.11 -3.4015 -24.7111 -6.60508 -1.44664 4.76502 -18.9676 -7.97287 
18.2743 97.8128 -55.309 3.76494 -4.83424 -6.35983 0 0 0 0.372977 5.00752 -0.640138 -7.23736 2.25557 0.464439 8.15517 6.2874 2.32128 -2.39379 -0.00923871 5.69979 -28.4127 3.38852 -6.29673 -34.0979 10.708 -26.6442 -4.38633 -23.2051 -3.92181 -8.99531 0.279325 -3.54778 23.7746 5.14167 13.5042 53.7145 12.8953 -0.908731 3.24394 -5.5557 13.5726 3.4295 0.141511 4.72814 -7.51577 -0.0983997 5.67242 -3.34958 20.4658 -0.623848 6.93551 -16.3915 0.997475 -0.0544102 3.43492 -0.624007 -4.90774 -18.3892 -2.7272 0.00429054 44.4975 -5.44554 -25.0039 -5.46305 -1.2112 4.98458 -19.9336 -7.64368 
17.8213 97.5047 -51.734 3.94353 -4.30429 -5.34701 0 0 0 -1.95883 4.46966 -1.12134 -4.72248 2.32946 -0.414652 8.91232 6.57831 2.19766 -3.2179 -0.29857 6.04446 -26.8765 3.47172 -6.98981 -33.5803 10.442 -31.3059 -4.84125 -23.2271 -5.66208 -8.98401 0.342621 -4.35988 24.5322 5.16061 13.1684 53.4152 11.3125 -4.2481 2.91397 -5.43695 14.3536 3.69853 0.144037 4.45566 -7.53232 2.45041 6.11742 -3.14858 19.4212 -2.14449 7.47078 -18.0037 1.18684 -0.11901 3.36056 -0.363941 -4.32279 -20.3801 -3.42642 -0.0903782 34.4526 -5.83146 -22.6985 -3.39891 -0.699988 4.60908 -18.1518 -7.67275 
17.466 97.1294 -48.2895 4.28961 -3.76564 -1.85326 0 0 0 -4.37371 4.31029 -2.81559 -2.23988 2.23921 -2.51363 10.1931 6.89078 1.91615 -4.24666 -0.552086 6.46684 -25.1676 3.52037 -7.68727 -33.4712 9.31348 -35.5217 -4.58939 -20.4173 -7.05517 -8.59417 0.333401 -4.43405 24.9021 5.11896 12.8505 53.558 9.2096 -7.05144 2.45775 -4.78601 14.8711 3.71721 0.148197 4.54136 -7.25002 4.59436 6.13902 -2.95684 19.243 -5.77322 9.02216 -19.5946 1.55943 -0.0515685 3.55055 -0.6579 -5.16966 -21.1678 -6.97673 0.225369 23.3914 -4.52962 -20.3145 0.980357 0.194373 4.53089 -17.9013 -8.31939 
17.0261 96.363 -44.3929 4.86843 -3.94573 -0.0617666 0 0 0 -6.39231 4.14457 -3.51467 -0.767642 2.55177 -3.41273 11.2602 7.3285 1.63102 -4.99759 -0.749658 6.76408 -24.199 3.55233 -8.12981 -32.4783 8.74115 -39.9835 -4.26738 -17.7887 -7.41236 -8.4385 0.354927 -4.81407 25.6633 5.1464 12.5649 53.4086 7.25432 -9.60757 2.60037 -5.42436 14.0121 3.1629 0.101091 3.67718 -7.14051 7.9048 6.82854 -3.06721 18.9606 -8.28802 9.70953 -21.9594 1.88992 -0.192315 3.54773 -0.132374 -5.79138 -20.893 -7.51201 1.51337 12.8529 -5.5221 -21.3664 4.00496 0.748859 4.99682 -19.7424 -6.71115 
16.7126 95.3175 -40.4186 5.87977 -3.85267 2.48483 0 0 0 -8.228 3.84112 -4.47593 0.142171 2.54458 -4.41498 11.7398 7.77537 1.36276 -5.36753 -1.42284 6.77376 -23.878 3.69873 -8.73105 -31.5433 7.94128 -43.7234 -3.78231 -14.4432 -7.68202 -8.38402 0.40533 -5.51124 26.0872 5.02857 12.0043 53.657 5.84848 -11.8861 2.87941 -6.49766 12.9291 3.03556 0.0887289 3.35442 -7.18009 10.773 7.41915 -3.12323 19.3266 -11.3137 11.0694 -24.3155 2.39074 -0.24249 3.35307 0.103691 -7.27092 -21.7255 -7.6941 1.87095 6.22409 -9.709 -18.5888 4.40413 0.726517 4.93584 -19.4003 -6.38795 
16.3658 94.269 -36.4453 6.77964 -3.53158 4.78817 0 0 0 -9.98407 3.44766 -5.28901 1.09513 2.64277 -5.29102 12.7406 7.9384 0.937692 -6.21085 -1.48766 6.90807 -23.7098 3.7832 -9.07177 -31.4156 7.18709 -46.895 -3.33349 -11.7099 -7.46338 -8.99184 0.475537 -6.04421 26.7274 5.10607 11.9449 53.8505 4.58176 -13.9742 3.02669 -7.11301 11.3292 2.79301 0.0828664 3.44445 -6.95771 13.7584 7.81822 -3.17798 18.8504 -14.0457 12.6514 -25.7183 2.89981 -0.254072 1.92091 0.496996 -8.54292 -23.4338 -8.59922 0.904284 3.41122 -14.1546 -14.7689 2.73717 0.359534 4.63803 -18.0666 -6.63651 
16.0586 93.2188 -32.4695 7.27112 -3.18301 6.94925 0 0 0 -11.7737 3.3052 -5.66303 3.52408 2.93884 -6.14328 11.5221 7.14349 0.905856 -5.52013 -0.930396 6.22241 -25.2996 4.0058 -9.1723 -30.3535 7.26633 -49.8496 -3.41512 -10.4418 -7.24029 -8.36979 0.434034 -5.92544 25.8215 4.76266 11.3117 54.302 3.60457 -14.851 3.40522 -9.38017 8.89798 4.5924 0.125821 3.12203 -6.21075 16.5017 8.14133 -3.09112 18.6736 -16.6346 15.1026 -26.6914 3.60262 -0.354348 -0.0486395 1.50822 -9.5777 -24.0522 -9.37626 0.17998 1.79014 -18.4275 -12.2517 0.956667 0.0988082 4.23831 -16.1464 -5.64068 
15.7811 92.3999 -28.5328 7.13786 -3.10914 8.40754 0 0 0 -10.9479 3.92103 -5.928 3.40261 2.71642 -6.51557 11.4039 6.00467 0.744071 -5.70435 -0.592865 5.95807 -24.7353 4.04848 -9.52651 -32.0998 7.26886 -51.5001 -3.18471 -8.87082 -6.31137 -8.77191 0.466627 -6.07996 26.0708 4.78 11.2534 54.512 3.03798 -15.3103 3.21822 -9.30415 5.64761 4.94272 0.14102 3.26955 -4.81248 18.8186 8.68421 -2.87587 19.4766 -18.6254 15.9521 -27.5872 3.93948 -0.219695 -1.48443 1.37142 -10.2989 -24.5453 -10.417 0.916107 3.9106 -19.8974 -12.5375 1.72809 0.19103 4.32255 -16.6033 -6.53587 
15.6177 92.3865 -24.9234 6.3561 -2.67009 9.97143 0 0 0 -9.18586 4.1633 -6.04215 3.97435 3.2719 -6.97167 10.3263 4.55033 0.742659 -5.70383 -0.606052 5.45075 -24.99 4.16558 -9.79601 -32.2192 8.57081 -53.1855 -3.59319 -8.51648 -4.28032 -8.80555 0.455256 -5.90765 25.6275 4.75912 11.3848 54.7431 2.23306 -15.5027 3.11325 -11.2253 2.75403 5.32788 0.136528 2.92678 -3.11374 20.2243 8.56749 -2.24672 19.6487 -19.6997 15.0666 -25.7952 3.46853 -0.0407205 -5.22186 1.99635 -10.9128 -24.663 -12.0535 1.95749 6.49219 -18.8796 -10.5817 6.20526 0.547276 4.14511 -15.954 -8.47967 
15.5472 93.035 -21.5775 5.36316 -2.055 11.3735 0 0 0 -6.71379 4.48972 -5.90952 4.70966 4.16401 -7.21077 8.35616 1.97531 0.86736 -5.13296 -0.16552 4.61234 -25.7376 4.34355 -10.0517 -31.8841 10.2026 -55.0847 -4.25849 -7.12132 -1.00217 -8.62934 0.446791 -5.92681 25.1411 4.80437 11.7461 54.4545 1.10129 -14.9108 2.66037 -13.2834 0.0449317 5.38234 0.096769 2.07118 -1.82554 20.1882 7.94558 -1.21887 20.6654 -17.9734 14.6704 -20.3957 2.64712 0.870752 -14.3777 0.844575 -11.3866 -25.2534 -13.5318 2.60647 8.8059 -18.9933 -8.43154 11.6395 0.91014 3.53177 -12.7689 -9.02123 
15.384 93.0919 -17.9124 4.57423 -1.63334 11.4577 0 0 0 -4.04362 5.79341 -5.26684 4.47582 3.89241 -6.61931 6.83778 -1.25506 0.957997 -4.68116 0.386393 3.94449 -25.1746 4.48335 -10.7239 -32.6615 11.7185 -56.3127 -5.01956 -4.99827 2.41048 -9.85689 0.451111 -5.21585 24.593 4.84998 12.1478 53.7852 1.52824 -13.107 2.47141 -14.3825 -1.95127 5.8797 0.0829236 1.61065 -0.505218 18.0709 8.83355 -0.537979 27.1745 -16.3968 13.5243 -15.9299 1.92032 1.58778 -22.0537 -1.31235 -11.733 -26.959 -15.723 4.25294 14.5015 -17.2547 -12.0422 15.2133 1.6173 3.55034 -12.6599 -11.0178 
15.277 93.1661 -14.6353 4.10384 -1.29325 11.0201 0 0 0 -0.490249 8.56439 -4.71404 2.52102 2.40621 -5.68343 6.05483 -3.87871 0.957573 -4.65783 0.0598222 3.56132 -23.981 4.52689 -11.3943 -30.8593 13.721 -58.5953 -6.97574 -3.77552 4.77781 -10.5809 0.385198 -4.17585 24.38 5.0947 13.0338 52.6516 3.53938 -10.6365 2.84791 -14.1849 -2.61943 5.71561 0.0986737 1.97283 1.14997 13.6587 10.4042 -0.0320591 37.681 -16.0964 9.86479 -11.2835 0.970434 1.72759 -23.0534 -4.36154 -12.8192 -29.4026 -23.9117 3.11917 23.3374 -8.37174 -10.1449 11.4699 1.00022 2.09153 -5.20315 -8.95703 
14.7999 92.9184 -11.8266 3.85813 -0.586318 10.9957 0 0 0 2.04605 11.874 -4.40043 0.441245 0.250878 -4.74152 5.56902 -6.82225 0.738645 -4.40806 -0.107306 3.01605 -22.6977 4.47509 -11.8382 -28.1178 15.1996 -62.6555 -9.8215 -0.561426 4.5249 -12.7463 0.306626 -2.75891 24.0433 5.50297 14.5309 50.8452 6.12535 -7.50032 3.57061 -12.6874 -1.23968 5.16612 0.0778082 1.72729 4.30573 6.0223 13.3362 0.0504777 52.5185 -17.1547 9.04178 -6.90749 0.531053 1.39264 -11.3819 -4.20067 -13.7838 -31.3665 -32.9756 -0.376448 30.4803 0.111005 -14.1032 7.65903 0.953839 2.23235 -6.26002 -7.98824 
14.4439 92.4166 -9.73501 3.77631 -0.386834 11.3948 0 0 0 3.74424 15.9408 -4.35926 -0.573216 -0.812151 -4.08634 4.76864 -11.2535 0.711674 -4.03156 -0.0963126 2.52565 -21.833 4.50648 -12.3843 -26.0761 14.8246 -66.9296 -11.7421 4.52128 4.51636 -14.2117 0.157214 -1.24252 23.0707 5.63095 15.5119 47.2828 9.1922 -1.67676 4.24219 -11.3097 -0.293814 4.44434 0.0813027 2.08974 7.40257 -2.21678 17.1041 0.280064 66.3531 -14.8183 10.0091 -1.74398 0.15283 0.862909 -0.836602 -3.54091 -15.1627 -32.2639 -34.5023 -0.00134476 36.1619 -0.1286 -14.8676 3.49497 0.46378 2.43973 -7.35413 -7.8841 
14.2491 91.8282 -8.16022 3.25138 0.776448 11.6762 0 0 0 5.2931 19.6164 -4.41085 -0.325628 -1.79171 -3.70167 3.82194 -15.1595 0.724832 -3.72453 -0.192073 2.13568 -21.4366 4.54994 -12.7498 -23.5158 14.7023 -69.3956 -12.5302 8.44707 4.54382 -13.4766 0.103371 -0.882772 22.0816 5.66328 16.2365 41.781 11.0124 5.22325 4.59845 -10.8712 -0.0622169 3.85746 0.0954684 2.81374 10.0716 -10.6042 21.4644 -0.272092 75.9662 -9.08496 10.867 -6.79356 0.665026 1.21626 -1.66282 -4.96261 -16.5989 -33.8278 -37.7431 0.00742716 40.4682 1.09548 -15.5633 0.175495 0.0223352 2.35958 -7.009 -7.69303 
